<svg height="512pt" viewBox="-63 0 512 512.001" width="512pt" xmlns="http://www.w3.org/2000/svg"><path d="m371.949219 257.652344h-356.910157c-8.304687 0-15.039062 6.734375-15.039062 15.039062v198.355469c0 22.582031 18.371094 40.953125 40.953125 40.953125h305.082031c22.582032 0 40.953125-18.371094 40.953125-40.953125v-198.355469c0-8.308594-6.734375-15.039062-15.039062-15.039062zm-142.277344 111.28125h-72.359375c-12.714844 0-23.023438-10.308594-23.023438-23.023438s10.308594-23.023437 23.023438-23.023437h72.359375c12.71875 0 23.027344 10.308593 23.027344 23.023437s-10.308594 23.023438-23.027344 23.023438zm0 0" fill="#ff6c52"/><path d="m371.949219 257.652344h-178.457031v65.234375h36.183593c12.714844 0 23.023438 10.308593 23.023438 23.023437 0 12.71875-10.308594 23.027344-23.023438 23.027344h-36.183593v143.0625h152.542968c22.582032 0 40.953125-18.371094 40.953125-40.953125v-198.355469c0-8.308594-6.734375-15.039062-15.039062-15.039062zm0 0" fill="#f70b57"/><path d="m172.546875 74.246094c0 32.699218-26.507813 59.207031-59.207031 59.207031-32.699219 0-59.207032-26.507813-59.207032-59.207031 0-32.699219 26.507813-59.207032 59.207032-59.207032 32.699218 0 59.207031 26.507813 59.207031 59.207032zm0 0" fill="#fff04a"/><path d="m113.339844 15.039062v118.414063c32.699218 0 59.207031-26.507813 59.207031-59.207031 0-32.699219-26.507813-59.207032-59.207031-59.207032zm0 0" fill="#f5cd62"/><path d="m113.339844 46.382812c-8.304688 0-15.039063 6.734376-15.039063 15.039063v25.648437c0 8.304688 6.734375 15.039063 15.039063 15.039063 8.304687 0 15.039062-6.734375 15.039062-15.039063v-25.648437c0-8.304687-6.734375-15.039063-15.039062-15.039063zm0 0" fill="#f5cd62"/><path d="m113.339844 46.382812v55.726563c8.304687 0 15.039062-6.734375 15.039062-15.039063v-25.648437c0-8.304687-6.734375-15.039063-15.039062-15.039063zm0 0" fill="#ffa426"/><path d="m113.339844 148.492188c-40.9375 0-74.246094-33.308594-74.246094-74.246094 0-40.941406 33.308594-74.246094 74.246094-74.246094s74.246094 33.308594 74.246094 74.246094-33.304688 74.246094-74.246094 74.246094zm0-118.414063c-24.355469 0-44.167969 19.8125-44.167969 44.167969 0 24.355468 19.8125 44.167968 44.167969 44.167968 24.355468 0 44.167968-19.8125 44.167968-44.167968 0-24.355469-19.8125-44.167969-44.167968-44.167969zm0 0" fill="#f5cd62"/><path d="m113.339844 0v30.078125c24.355468 0 44.167968 19.8125 44.167968 44.167969 0 24.355468-19.8125 44.167968-44.167968 44.167968v30.078126c40.9375 0 74.246094-33.308594 74.246094-74.246094 0-40.941406-33.304688-74.246094-74.246094-74.246094zm0 0" fill="#ffa426"/><path d="m332.855469 155.367188c0 32.699218-26.507813 59.207031-59.207031 59.207031-32.699219 0-59.207032-26.507813-59.207032-59.207031 0-32.699219 26.507813-59.207032 59.207032-59.207032 32.699218 0 59.207031 26.507813 59.207031 59.207032zm0 0" fill="#fff04a"/><path d="m273.648438 96.160156v118.414063c32.699218 0 59.207031-26.507813 59.207031-59.207031 0-32.699219-26.507813-59.207032-59.207031-59.207032zm0 0" fill="#f5cd62"/><path d="m273.648438 127.503906c-8.304688 0-15.039063 6.734375-15.039063 15.039063v25.648437c0 8.304688 6.734375 15.039063 15.039063 15.039063 8.304687 0 15.039062-6.734375 15.039062-15.039063v-25.648437c0-8.304688-6.734375-15.039063-15.039062-15.039063zm0 0" fill="#f5cd62"/><path d="m273.648438 127.503906v55.726563c8.304687 0 15.039062-6.734375 15.039062-15.039063v-25.648437c0-8.304688-6.734375-15.039063-15.039062-15.039063zm0 0" fill="#ffa426"/><path d="m273.648438 229.609375c-40.9375 0-74.246094-33.304687-74.246094-74.242187 0-40.941407 33.308594-74.246094 74.246094-74.246094s74.246093 33.304687 74.246093 74.246094c0 40.9375-33.308593 74.242187-74.246093 74.242187zm0-118.414063c-24.355469 0-44.167969 19.816407-44.167969 44.171876 0 24.351562 19.8125 44.167968 44.167969 44.167968 24.355468 0 44.167968-19.8125 44.167968-44.167968 0-24.355469-19.8125-44.171876-44.167968-44.171876zm0 0" fill="#f5cd62"/><path d="m273.648438 81.121094v30.074218c24.355468 0 44.167968 19.816407 44.167968 44.171876 0 24.351562-19.8125 44.167968-44.167968 44.167968v30.074219c40.9375 0 74.246093-33.304687 74.246093-74.242187 0-40.941407-33.308593-74.246094-74.246093-74.246094zm0 0" fill="#ffa426"/></svg>