<?xml version="1.0" ?><!DOCTYPE svg  PUBLIC '-//W3C//DTD SVG 1.1//EN'  'http://www.w3.org/Graphics/SVG/1.1/DTD/svg11.dtd'><svg height="512px" style="enable-background:new 0 0 512 512;" version="1.1" viewBox="0 0 512 512" width="512px" xml:space="preserve" xmlns="http://www.w3.org/2000/svg" xmlns:xlink="http://www.w3.org/1999/xlink"><g id="B_-_103_x2C__Dollar_x2C__Bag_x2C__Hand_x2C__business_x2C__capital_x2C__debt_x2C__investment_x2C__savings"><g><path d="M116.935,355.365c-7.202,3.371-19.005,9.003-20.613,12.413    c-1.302,2.758-0.076,7.241,1.302,12.26l1.227,4.483c2.91,11.686,2.989,25.248,3.065,38.466c0,13.793,0.076,27.164,3.45,37.049    c0.306,1.035,0.382,1.419,0.382,1.419c0.766-0.04,2.299-0.959,4.367-2.146c3.906-2.261,11.648-5.862,20.535-9.962    c17.319-8.046,39.004-18.046,40.613-21.724c0.611-1.302,0.766-2.988,0.46-4.981c-0.306-2.259-1.151-4.865-2.378-7.776l0,0v-0.077    l-0.075-0.076l-0.151-0.345l-0.155-0.383l-0.155-0.346l-0.151-0.383l-0.155-0.384l0,0l-0.23-0.383l-0.23-0.421l0,0l-0.151-0.422    l-0.231-0.421l0,0l-0.153-0.422l-0.231-0.459l-0.23-0.422l-0.226-0.461l0,0l-0.23-0.459l0,0l-0.23-0.498l-0.23-0.459l0,0    l-0.23-0.499h-0.075l-0.23-0.498l0,0l-0.231-0.498l0,0l-0.306-0.497l0,0l-0.229-0.537l0,0l-0.307-0.498l0,0l-0.229-0.536l0,0    l-0.31-0.536l0,0l-0.307-0.537l0,0l-0.229-0.536l0,0l-0.306-0.536l0,0l-0.307-0.537v-0.037l-0.306-0.537l0,0l-0.306-0.575l0,0    l-0.309-0.574l0,0l-0.306-0.575l0,0l-0.306-0.573l0,0l-0.306-0.575l0,0l-0.307-0.574l0,0l-0.384-0.575l0,0l-0.306-0.613l0,0    l-0.307-0.574l0,0l-0.384-0.613l0,0l-0.306-0.613l0,0l-0.382-0.574l0,0l-0.309-0.613l0,0l-0.382-0.612l0,0l-0.306-0.614l0,0    l-0.385-0.612l0,0l-0.306-0.613l0,0l-0.384-0.613l0,0l-0.381-0.613l0,0l-0.385-0.612l0,0l-0.306-0.612l0,0l-0.382-0.613l0,0    l-0.384-0.614l0,0l-0.076-0.152l-0.611-1.074v-0.037l-0.386-0.614l0,0l-0.381-0.611l0,0l-0.384-0.613l0,0l-0.382-0.614l0,0    l-0.384-0.612l0,0l-0.307-0.613l0,0l-0.384-0.612h-0.076l-0.306-0.614l0,0l-0.384-0.612l0,0l-0.381-0.613l0,0l-0.306-0.498l0,0    l-0.307-0.498l0,0l-0.309-0.498l0,0l-0.307-0.46v-0.038l-0.306-0.459v-0.039l-0.306-0.46l0,0l-0.306-0.498l0,0l-0.309-0.459    v-0.039l-0.306-0.46h-0.076l-0.231-0.459l0,0l-0.306-0.498l0,0l-0.306-0.46v-0.039l-0.309-0.421v-0.038l-0.306-0.46l0,0    l-0.306-0.46l0,0l-0.306-0.459l0,0l-0.307-0.461l0,0l-0.309-0.459l0,0l-0.307-0.46l0,0l-0.306-0.46l0,0l-0.306-0.421l0,0    l-0.306-0.46l0,0l-0.309-0.421l0,0l-0.23-0.461l0,0l-0.306-0.421l0,0l-0.306-0.422l0,0l-0.306-0.421l0,0l-0.307-0.422l0,0    l-0.23-0.421l0,0l-0.306-0.384l0,0l-0.309-0.421l0,0l-0.23-0.383l0,0l-0.306-0.422l0,0l-0.306-0.383l0,0l-0.231-0.384l0,0    l-0.306-0.383l0,0l-0.229-0.383l0,0l-0.307-0.345l0,0l-0.229-0.383h-0.076l-0.229-0.345l0,0l-0.23-0.346l0,0l-0.306-0.345l0,0    l-0.231-0.345l0,0l-0.229-0.345h-0.076l-0.23-0.307l0,0l-0.23-0.307l0,0l-0.766-0.958l0,0l-0.23-0.268l0,0l-0.46-0.575l0,0    l-0.46-0.536l0,0l-0.687-0.766l0,0l-0.846-0.92l0,0l-0.611-0.574c-2.835-2.759-5.134-3.717-7.051-3.794    c-1.914-0.038-3.677,0.767-5.285,1.532L116.935,355.365z M139.999,354.637l0.152,0.153l0.079,0.114l0.151,0.192l0.079,0.076    l0.152,0.229l0.075,0.039l0.155,0.23l0.076,0.076l0.155,0.191l0.075,0.153l0.154,0.115l0.152,0.191l0.079,0.076l0.151,0.268v0.039    l0.23,0.268l0.079,0.039l0.151,0.229l0.076,0.115l0.155,0.191l0.155,0.191l0.075,0.115l0.231,0.23v0.076l0.23,0.269v0.038    l0.229,0.269l0.076,0.114l0.154,0.192l0.151,0.19l0.076,0.153l0.155,0.229l0.075,0.077l0.536,0.728l0.155,0.23l0.155,0.153    l0.151,0.191l0.155,0.191l0.076,0.153l0.155,0.269l0.075,0.076l0.23,0.345l0,0l0.229,0.346l0.076,0.076l0.154,0.269l0.151,0.191    l0.154,0.152l0.155,0.27l0.076,0.076l0.229,0.345l0,0l0.231,0.383l0.075,0.076l0.231,0.27l0.076,0.152l0.155,0.23l0.151,0.229    l0.079,0.152l0.23,0.307v0.039l0.306,0.383v0.038l0.23,0.346l0.076,0.115l0.155,0.268l0.151,0.191l0.155,0.191l0.152,0.269    l0.079,0.115l0.229,0.344v0.039l0.307,0.383v0.077l0.229,0.307l0.151,0.152l0.079,0.23l0.151,0.268l0.154,0.154l0.23,0.306v0.076    l0.23,0.384l0.076,0.038l0.229,0.384l0.076,0.115l0.155,0.268l0.151,0.229l0.155,0.191l0.151,0.308l0.08,0.114l0.306,0.383l0,0    l0.229,0.422l0.076,0.076l0.154,0.308l0.151,0.191l0.154,0.229l0.151,0.268l0.08,0.153l0.229,0.345l0.076,0.076l0.229,0.422v0.039    l0.231,0.383l0.076,0.114l0.229,0.27l0.155,0.229l0.076,0.191l0.229,0.344l0.076,0.078l0.23,0.421l0,0l0.306,0.574l0.075,0.039    l0.309,0.498l0.076,0.153l0.229,0.421l0.152,0.192l0.229,0.344l0.155,0.269l0.155,0.307l0.227,0.345l0.155,0.229l0.23,0.384    l0.075,0.152l0.306,0.461l0.079,0.114l0.306,0.537l0,0l0.306,0.574l0.076,0.038l0.31,0.537v0.114l0.306,0.46l0.151,0.153    l0.23,0.383l0.079,0.268l0.23,0.308l0.151,0.307l0.154,0.268l0.23,0.383l0.076,0.192l0.306,0.421l0.076,0.115l0.31,0.499v0.075    l0.306,0.538l0.076,0.037l0.306,0.537v0.076l0.309,0.499l0.075,0.152l0.23,0.384l0.151,0.229l0.154,0.345l0.151,0.268l0.154,0.268    l0.231,0.347l0.075,0.229l0.307,0.384l0.079,0.153l0.23,0.46l0.076,0.076l0.305,0.575l0,0l0.306,0.536v0.038l0.31,0.498v0.115    l0.306,0.421l0.076,0.191l0.155,0.346l0.151,0.269l0.155,0.267l0.23,0.308l0.076,0.229l0.23,0.383l0.075,0.154l0.23,0.421    l0.075,0.115l0.23,0.459v0.039l0.31,0.536l0,0l0.306,0.497l0.076,0.077l0.155,0.422l0.151,0.153l0.155,0.383l0.151,0.191    l0.155,0.307l0.076,0.269l0.155,0.229l0.155,0.308l0.151,0.191l0.155,0.383l0.075,0.113l0.23,0.422v0.04l0.306,0.497l0,0    l0.23,0.46v0.077l0.23,0.382l0.076,0.154l0.155,0.345l0.075,0.153l0.155,0.306l0.151,0.23l0.079,0.229l0.151,0.269l0.08,0.152    l0.226,0.346v0.114l0.23,0.384v0.037l0.231,0.422v0.039l0.229,0.422v0.038l0.155,0.383l0.076,0.077l0.155,0.307l0.075,0.152    l0.155,0.269l0.076,0.19l0.076,0.231l0.075,0.229l0.079,0.153l0.151,0.269l0.079,0.114l0.151,0.307v0.077    c32.108-11.915,48.657-6.59,66.13-0.959c11.49,3.679,23.37,7.51,40.685,6.208c13.641-0.997,44.98-15.71,70.648-32.069    c21.226-13.524,38.469-27.854,37.932-35.592l-0.078-0.767c-0.536-3.755-2.911-5.978-5.976-7.203    c-3.601-1.38-8.124-1.608-12.261-1.302c-1.072,0.076-2.068,0.191-2.989,0.306c-9.577,1.341-22.298,5.402-34.403,10.612    l-1.838,0.805l-0.231,0.077c-2.223,0.996-4.442,2.03-6.515,3.026l-0.076,0.038l-0.15,0.039l-0.155,0.076l-0.229,0.153l-0.23,0.076    l-0.306,0.154l0,0l-0.843,0.459l-0.154,0.077l0,0l-0.15,0.076l-0.154,0.076l-0.155,0.077h-0.076l-0.075,0.077l-0.154,0.037    l-0.152,0.077l-0.154,0.077l0,0l-0.154,0.115l-0.151,0.076l-0.079,0.038l-0.076,0.038l-0.074,0.039l-0.154,0.076l-0.152,0.076    l-0.154,0.077l0,0l-0.154,0.076l-0.152,0.077l-0.074,0.076l-0.154,0.038v0.039l-0.155,0.076l-0.151,0.039l-0.461,0.229    l-0.075,0.078l-0.845,0.459l-0.151,0.077l-0.155,0.038v0.038l-0.15,0.076l-0.23,0.115l-0.079,0.039l-0.076,0.037l-0.154,0.077    l-0.151,0.077l-0.076,0.115l0,0l-0.154,0.037c-1.071,0.575-2.068,1.149-3.064,1.763l-0.154,0.038l0,0l-0.076,0.077l-0.535,0.306    l-0.155,0.078l-0.382,0.268c-0.154,0.076-0.305,0.191-0.46,0.269c-3.372,2.03-6.36,4.061-8.966,6.053    c-2.375,5.172-7.813,7.931-14.94,9.042c-16.857,2.644-43.292-4.482-53.484-7.241l-2.378-0.613    c-1.608-0.422-2.526-2.107-2.144-3.716c0.46-1.609,2.069-2.567,3.677-2.146l2.377,0.652c9.883,2.644,35.477,9.54,51.031,7.087    c6.896-1.071,11.649-4.291,10.958-11.187v-0.077l0,0v-0.038v-0.038v-0.076l-0.075-0.651c-0.154-0.613-0.309-1.227-0.46-1.802l0,0    c-2.224-6.935-10.883-12.527-22.147-16.78c-4.061-1.533-8.35-2.835-12.871-4.022l-0.154-0.039l-0.688-0.152l-0.23-0.077    l-1.457-0.345c-0.15,0-0.306-0.076-0.461-0.115c-1.302-0.307-2.68-0.612-3.982-0.882c-4.137-0.88-8.354-1.646-12.491-2.259h-0.076    l-0.92-0.154h-0.076l-2.759-0.383L239,329.619l-3.065-0.383l-0.309-0.039l-0.766-0.076h-0.151l-0.846-0.115h-0.151l-0.842-0.115    h-0.079l-0.918-0.076h-0.079l-0.842-0.077l-0.152-0.038l-0.766-0.077h-0.231l-0.615-0.076l-0.381-0.038l-0.536-0.038l-1.842-0.115    l-0.611-0.076h-0.306c-2.684-0.191-5.289-0.345-7.738-0.422h-0.385l0,0v-0.039c-7.968-0.229-14.864,0.039-19.693,0.805    l-1.533,0.269c-8.504,1.724-19.538,6.321-30.341,11.57c-9.427,4.636-18.697,9.771-26.054,13.946L139.999,354.637z M229.42,322.53    l0.766,0.037l1.072,0.115l0,0l3.144,0.308l0.537,0.076l0.536,0.039l0.381,0.076l0.691,0.077h0.306l0.766,0.115h0.155l0.918,0.115    l0,0l0.92,0.114l0.155,0.038l0.842,0.115h0.229l0.688,0.115l0.385,0.038l0.536,0.114l2.681,0.384h0.154l0.23,0.037    c-13.948-12.222-18.696-28.542-18.696-28.581c-0.46-1.609,0.46-3.295,2.068-3.792c1.533-0.46,3.295,0.459,3.756,2.067    c0,0.04,6.896,23.793,28.964,33.486l1.457,0.346l0.305,0.076l0.537,0.152l0.612,0.115l0.306,0.115l0.689,0.191l0.23,0.039    l0.842,0.229h0.079c3.832,1.073,7.509,2.26,11.034,3.563c11.646,4.406,20.841,10.344,24.672,18.007l0.074,0.114l0.155,0.307    l0.155,0.308v0.113c0.381,0.844,0.687,1.687,0.918,2.567h6.285l0,0l0.15-0.076l0.078-0.038l0.076-0.039l0.076-0.076l0.154-0.076    l0.076-0.039l0,0l0.154-0.076l0.15-0.076l0.08-0.077h0.074l0.076-0.077l0.155-0.076l0.075-0.076l0,0l0.154-0.077l0.152-0.076    l0.078-0.077l0,0l0.151-0.076l0.154-0.077l0.151-0.076l0,0l0.08-0.076l0.15-0.078l0.078-0.037l0.076-0.039l0.076-0.037    l0.154-0.078l0.151-0.075v-0.039l0.155-0.038l0.074-0.077l0.154-0.076l0.076-0.038l0.076-0.039l0.079-0.076l0.151-0.077    l0.078-0.038h0.076l0.076-0.076l0.154-0.077l0.075-0.076h0.075l0.155-0.076l0.155-0.078l0.074-0.037v-0.039l0.154-0.076    l0.152-0.076l0.689-0.384l0.076-0.038l0.155-0.077l0.151-0.076l0.154-0.076l0.381-0.23l0.155-0.076l0,0l0.154-0.039l0.075-0.076    l0.154-0.076v-0.038l0.152-0.039l0.154-0.077l0.151-0.076l0,0l0.079-0.076l0.305-0.153h0.076l0.076-0.039l0.385-0.229l0.305-0.153    l0.076-0.039l2.529-1.263l0.079-0.039l0.075-0.038l0.382-0.191h0.079l0.307-0.191l0.154-0.039l0.305-0.152v-0.039l0.997-0.459    l0.151-0.077l1.227-0.574l0.155-0.078l0.151-0.076l0,0l0.154-0.076l0.15-0.039l0.155-0.076l0,0l0.154-0.076l0.151-0.076    l0.154-0.077l0,0l0.151-0.077l0.154-0.038l0.155-0.076l0,0l0.15-0.077l0.154-0.076l0.152-0.038v-0.039l0.154-0.038l0.155-0.077    l0.151-0.076l0,0l0.154-0.076l0.15-0.039l0.155-0.076l0,0c6.437-7.548,11.646-17.317,15.325-27.662    c4.062-11.072,6.281-22.796,6.281-33.064c0-18.083-9.576-32.144-20.305-47.854c-9.119-13.447-19.078-28.083-24.98-47.624h-47.661    c-5.9,19.541-15.861,34.177-24.978,47.624l-0.155,0.154c-10.652,15.631-20.153,29.655-20.153,47.7    c0,6.207,0.845,12.911,2.378,19.616c1.302,6.207,3.37,12.452,5.821,18.429C222.908,322.032,226.125,322.225,229.42,322.53z     M142.834,412.528c-0.842-0.652-1.993-0.997-3.141-0.882c-1.151,0.114-2.148,0.729-2.759,1.571    c-0.69,0.842-1.072,1.953-0.92,3.103c0.155,1.149,0.69,2.146,1.532,2.798c0.846,0.689,1.993,1.034,3.141,0.881    c1.151-0.115,2.148-0.689,2.759-1.532c0.69-0.844,1.072-1.954,0.921-3.104C144.212,414.214,143.676,413.218,142.834,412.528z     M139.002,405.632c2.835-0.307,5.516,0.536,7.587,2.184c2.068,1.609,3.447,4.061,3.752,6.858c0.385,2.796-0.536,5.517-2.145,7.546    c-1.608,2.07-4.062,3.488-6.896,3.832c-2.759,0.307-5.439-0.574-7.508-2.184c-2.072-1.648-3.45-4.061-3.832-6.896    c-0.309-2.797,0.537-5.478,2.22-7.51C133.793,407.395,136.243,405.938,139.002,405.632z M261.604,142.766    c0.46,8.773,0.306,17.547-0.615,25.592h39.386c-0.918-8.045-1.073-16.819-0.611-25.592c0.46-9.234,1.684-18.506,3.446-26.858    c-1.838-0.191-3.753-0.268-5.439-0.345l-0.461-0.039c-3.445-0.153-6.205,0.69-9.04,1.495c-2.604,0.804-5.288,1.57-8.584,1.724    c-4.212,0.153-7.278-0.69-10.343-1.61c-3.064-0.88-6.281-1.8-11.188-1.302C259.917,124.222,261.143,133.494,261.604,142.766z     M257.542,174.411h-0.076h-7.281c-1.072,0-2.069,0.46-2.835,1.149c-0.691,0.69-1.147,1.724-1.147,2.798    c0,1.072,0.457,2.068,1.147,2.758c0.766,0.728,1.763,1.188,2.835,1.188h4.292h0.075h52.258h0.078h4.292    c1.147,0,2.069-0.459,2.835-1.149c0.688-0.729,1.147-1.724,1.147-2.796c0-1.034-0.382-1.992-1.071-2.682l-0.076-0.116    c-0.766-0.689-1.688-1.149-2.835-1.149h-30.499H257.542z M302.521,263.338c-5.518-5.596-13.332-9.043-21.84-9.043    c-8.505,0-16.243,3.447-21.838,9.043c-5.594,5.593-9.04,13.332-9.04,21.876s3.446,16.283,9.04,21.876    c5.595,5.594,13.258,9.042,21.838,9.042c8.508,0,16.322-3.448,21.84-9.042c5.594-5.593,9.117-13.332,9.117-21.876    S308.115,268.931,302.521,263.338z M280.682,247.973c10.268,0,19.616,4.176,26.359,10.918    c6.744,6.745,10.881,16.055,10.881,26.322s-4.137,19.577-10.881,26.32c-6.743,6.742-16.092,10.92-26.359,10.92    s-19.615-4.178-26.359-10.92c-6.667-6.704-10.879-16.015-10.879-26.32c0-10.268,4.212-19.577,10.879-26.322    C261.066,252.149,270.414,247.973,280.682,247.973z M282.293,296.057c1.147-0.269,2.068-0.768,2.756-1.61    c0.69-0.804,1.076-1.763,1.076-2.912c0-0.995-0.311-1.838-0.922-2.527c-0.535-0.729-1.532-1.303-2.91-1.686V296.057z     M279.073,272.341c-0.842,0.307-1.532,0.843-2.069,1.532c-0.46,0.728-0.689,1.494-0.689,2.337c0,0.806,0.154,1.532,0.615,2.223    c0.456,0.65,1.223,1.187,2.144,1.608V272.341z M392.555,72.806c1.531-0.805,3.373-0.231,4.14,1.226    c0.767,1.456,0.228,3.333-1.226,4.1l-26.36,14.329c-1.456,0.767-3.296,0.229-4.138-1.226c-0.766-1.494-0.23-3.333,1.225-4.138    L392.555,72.806z M163.599,78.132c-1.457-0.767-2.069-2.644-1.227-4.1c0.767-1.457,2.605-2.031,4.138-1.226l26.358,14.291    c1.457,0.805,1.993,2.644,1.151,4.138c-0.766,1.455-2.604,1.992-4.062,1.226L163.599,78.132z M334.781,41.887    c0.842-1.417,2.756-1.839,4.137-0.957c1.457,0.842,1.914,2.72,0.997,4.136l-9.271,15.134c-0.845,1.418-2.759,1.877-4.141,0.996    c-1.454-0.88-1.913-2.758-0.997-4.176L334.781,41.887z M395.162,134.566c1.684,0,3.064,1.342,3.064,3.027    c0,1.647-1.381,3.026-3.064,3.026h-18.546c-1.684,0-3.064-1.379-3.064-3.026c0-1.686,1.381-3.027,3.064-3.027H395.162z     M163.905,140.62c-1.684,0-3.065-1.379-3.065-3.026c0-1.686,1.381-3.027,3.065-3.027h18.545c1.684,0,3.066,1.342,3.066,3.027    c0,1.647-1.382,3.026-3.066,3.026H163.905z M219.152,45.066c-0.921-1.417-0.46-3.294,0.997-4.136    c1.378-0.882,3.216-0.46,4.137,0.957l9.271,15.134c0.921,1.417,0.46,3.295-0.997,4.176c-1.378,0.881-3.292,0.422-4.137-0.996    L219.152,45.066z M276.469,67.557c0-1.687,1.377-3.064,3.064-3.064c1.684,0,3.064,1.378,3.064,3.064v16.092    c0,1.687-1.381,3.065-3.064,3.065c-1.688,0-3.064-1.378-3.064-3.065V67.557z M338.688,99.932c1.457-0.805,3.296-0.345,4.138,1.111    s0.306,3.294-1.147,4.138l-13.947,8.045c-1.457,0.844-3.296,0.346-4.138-1.111c-0.767-1.456-0.306-3.294,1.147-4.099    L338.688,99.932z M217.39,105.181c-1.457-0.844-1.993-2.682-1.147-4.138c0.842-1.456,2.68-1.954,4.137-1.111l13.944,8.084    c1.457,0.805,1.993,2.682,1.151,4.138c-0.846,1.417-2.683,1.916-4.138,1.072L217.39,105.181z M307.501,83.036    c0.842-1.456,2.759-1.955,4.216-1.112c1.379,0.805,1.914,2.644,1.072,4.1l-4.904,8.505c-0.844,1.456-2.683,1.954-4.14,1.149    c-1.454-0.843-1.915-2.682-1.148-4.137L307.501,83.036z M246.277,86.024c-0.842-1.417-0.305-3.294,1.073-4.1    c1.457-0.843,3.295-0.383,4.137,1.073l4.982,8.544c0.767,1.455,0.307,3.294-1.151,4.137c-1.453,0.805-3.294,0.307-4.137-1.111    L246.277,86.024z M181.76,457.048c-1.688,0-2.99-1.38-2.99-3.064c0-1.648,1.302-3.027,2.99-3.027h153.021    c1.684,0,3.064,1.379,3.064,3.027c0,1.685-1.381,3.064-3.064,3.064H181.76z M260.07,471.53c-1.687,0-3.064-1.342-3.064-3.026    c0-1.687,1.378-3.027,3.064-3.027h124.746c1.686,0,3.064,1.341,3.064,3.027c0,1.685-1.379,3.026-3.064,3.026H260.07z     M397.612,471.53c-1.685,0-2.989-1.342-2.989-3.026c0-1.687,1.305-3.027,2.989-3.027h15.632c1.686,0,2.988,1.341,2.988,3.027    c0,1.685-1.303,3.026-2.988,3.026H397.612z M147.355,471.108c-1.687,0-3.065-1.379-3.065-3.026c0-1.686,1.378-3.065,3.065-3.065    h59.076c1.687,0,3.065,1.38,3.065,3.065c0,1.647-1.378,3.026-3.065,3.026H147.355z M279.073,295.673v-9.31    c-2.835-0.806-4.979-2.069-6.36-3.755c-1.303-1.686-1.993-3.717-1.993-6.131s0.767-4.443,2.299-6.129    c1.533-1.647,3.525-2.605,6.055-2.835v-2.185h3.22v2.185c2.375,0.268,4.288,1.072,5.745,2.414c1.378,1.34,2.224,3.102,2.604,5.325    l-5.594,0.728c-0.381-1.725-1.302-2.912-2.756-3.563v8.696c3.601,0.958,6.051,2.222,7.354,3.755    c1.303,1.531,1.918,3.486,1.918,5.9c0,2.682-0.767,4.903-2.454,6.743c-1.608,1.877-3.907,2.988-6.817,3.448v4.137h-3.22v-4.062    c-2.529-0.344-4.598-1.264-6.206-2.834c-1.608-1.609-2.605-3.87-3.064-6.743l5.824-0.689c0.15,1.187,0.688,2.184,1.303,3.063    C277.541,294.677,278.307,295.289,279.073,295.673z" style="fill-rule:evenodd;clip-rule:evenodd;"/></g></g><g id="Layer_1"/></svg>