<?xml version="1.0" encoding="iso-8859-1"?>
<!-- Generator: Adobe Illustrator 16.0.0, SVG Export Plug-In . SVG Version: 6.00 Build 0)  -->
<!DOCTYPE svg PUBLIC "-//W3C//DTD SVG 1.1//EN" "http://www.w3.org/Graphics/SVG/1.1/DTD/svg11.dtd">
<svg version="1.1" id="Capa_1" xmlns="http://www.w3.org/2000/svg" xmlns:xlink="http://www.w3.org/1999/xlink" x="0px" y="0px"
	 width="38px" height="38px" viewBox="0 0 38 38" style="enable-background:new 0 0 38 38;" xml:space="preserve">
<g>
	<path d="M31.124,8.111L29.952,8.11c0-3.826-3.113-6.938-6.939-6.938V0C27.485,0,31.124,3.639,31.124,8.111z M23.013,2.025v1.172
		c2.711,0,4.914,2.204,4.914,4.914h1.172C29.099,4.756,26.368,2.025,23.013,2.025z M25.901,7.457v28.331
		c0,1.216-0.994,2.212-2.211,2.212H9.087c-1.215,0-2.211-0.996-2.211-2.212V7.457c0-1.217,0.996-2.211,2.211-2.211H23.69
		C24.907,5.246,25.901,6.24,25.901,7.457z M13.786,7.108c0,0.148,0.119,0.267,0.269,0.267h4.672c0.147,0,0.269-0.118,0.269-0.267
		s-0.121-0.269-0.269-0.269h-4.672C13.905,6.84,13.786,6.96,13.786,7.108z M17.495,35.788c0-0.612-0.494-1.104-1.104-1.104
		c-0.61,0-1.106,0.492-1.106,1.104c0,0.61,0.496,1.106,1.106,1.106C16.999,36.895,17.495,36.398,17.495,35.788z M24.364,8.753H8.415
		v25.152h15.949V8.753z M12.81,18.808c0-1.934,1.572-3.505,3.506-3.505c1.932,0,3.504,1.571,3.504,3.505
		c0,1.933-1.572,3.504-3.504,3.504C14.382,22.312,12.81,20.74,12.81,18.808z M13.448,18.808c0,1.581,1.286,2.866,2.867,2.866
		c1.494,0,2.723-1.15,2.854-2.613c-0.612-0.562-1.213-1.695-1.327-2.497c-0.147,0.442-3.392,1.093-4.181,1.164
		C13.524,18.061,13.448,18.426,13.448,18.808z M18.954,21.711c-0.694,0.632-1.612,1.021-2.621,1.027v-0.002
		c-0.008,0-0.014,0.002-0.021,0.002c-0.006,0-0.013-0.002-0.021-0.002v0.002c-1.01-0.006-1.928-0.396-2.621-1.027
		c-1.271,0.237-2.232,1.35-2.232,2.688v3.039h4.854h0.041h4.854v-3.039C21.187,23.061,20.224,21.948,18.954,21.711z"/>
</g>
<g>
</g>
<g>
</g>
<g>
</g>
<g>
</g>
<g>
</g>
<g>
</g>
<g>
</g>
<g>
</g>
<g>
</g>
<g>
</g>
<g>
</g>
<g>
</g>
<g>
</g>
<g>
</g>
<g>
</g>
</svg>
